<svg xmlns="http://www.w3.org/2000/svg" width="12" height="9" viewBox="0 0 12.1 9.1"><path d="M11.786 4.288a.517.517 0 00-.012-.569C10 1.251 8.084 0 6.079 0 2.677 0 .314 3.586.216 3.738a.517.517 0 00.012.569C2 6.777 3.915 8.028 5.921 8.028c3.402 0 5.764-3.586 5.865-3.74zM5.893 7.06c-1.663 0-3.283-1.039-4.822-3.085.602-.809 2.518-3.08 4.98-3.08 1.663 0 3.283 1.04 4.822 3.086-.603.809-2.518 3.08-4.98 3.08z"/><path d="M5.975 2.113c-1.04 0-1.889.857-1.889 1.908 0 1.052.848 1.909 1.889 1.909 1.04 0 1.888-.857 1.888-1.909a1.901 1.901 0 00-1.888-1.908zm0 2.965a1.053 1.053 0 01-1.046-1.057c0-.582.47-1.056 1.046-1.056.576 0 1.045.474 1.045 1.056 0 .583-.469 1.057-1.045 1.057z"/></svg>