<svg width="29" height="28" viewBox="0 0 29.1 28.1" fill="none" xmlns="http://www.w3.org/2000/svg"><path d="M10.15 0H2.9C1.305 0 0 1.26 0 2.8v7c0 1.54 1.305 2.8 2.9 2.8h7.25c1.595 0 2.9-1.26 2.9-2.8v-7c0-1.54-1.305-2.8-2.9-2.8zm0 7H2.9V5.6h7.25V7zm15.95 8.4h-7.25c-1.595 0-2.9 1.26-2.9 2.8v7c0 1.54 1.305 2.8 2.9 2.8h7.25c1.595 0 2.9-1.26 2.9-2.8v-7c0-1.54-1.305-2.8-2.9-2.8zm0 8.4h-7.25v-1.4h7.25v1.4zm0-2.8h-7.25v-1.4h7.25V21zm0-21h-7.25c-1.595 0-2.9 1.26-2.9 2.8v7c0 1.54 1.305 2.8 2.9 2.8h7.25c1.595 0 2.9-1.26 2.9-2.8v-7C29 1.26 27.695 0 26.1 0zm0 7h-2.9v2.8h-1.45V7h-2.9V5.6h2.9V2.8h1.45v2.8h2.9V7zm-15.95 8.4H2.9c-1.595 0-2.9 1.26-2.9 2.8v7C0 26.74 1.305 28 2.9 28h7.25c1.595 0 2.9-1.26 2.9-2.8v-7c0-1.54-1.305-2.8-2.9-2.8zm-.58 8.26l-1.015.98-2.03-1.96-2.03 1.96-1.015-.98 2.03-1.96-2.03-1.96 1.015-.98 2.03 1.96 2.03-1.96 1.015.98-2.03 1.96 2.03 1.96z" fill="#FD2016"/></svg>