<svg xmlns="http://www.w3.org/2000/svg" xmlns:xlink="http://www.w3.org/1999/xlink"><symbol id="icon-calc" viewBox="0 0 29.1 28.1"><g fill="none"><path d="M10.15 0H2.9C1.305 0 0 1.26 0 2.8v7c0 1.54 1.305 2.8 2.9 2.8h7.25c1.595 0 2.9-1.26 2.9-2.8v-7c0-1.54-1.305-2.8-2.9-2.8zm0 7H2.9V5.6h7.25V7zm15.95 8.4h-7.25c-1.595 0-2.9 1.26-2.9 2.8v7c0 1.54 1.305 2.8 2.9 2.8h7.25c1.595 0 2.9-1.26 2.9-2.8v-7c0-1.54-1.305-2.8-2.9-2.8zm0 8.4h-7.25v-1.4h7.25v1.4zm0-2.8h-7.25v-1.4h7.25V21zm0-21h-7.25c-1.595 0-2.9 1.26-2.9 2.8v7c0 1.54 1.305 2.8 2.9 2.8h7.25c1.595 0 2.9-1.26 2.9-2.8v-7C29 1.26 27.695 0 26.1 0zm0 7h-2.9v2.8h-1.45V7h-2.9V5.6h2.9V2.8h1.45v2.8h2.9V7zm-15.95 8.4H2.9c-1.595 0-2.9 1.26-2.9 2.8v7C0 26.74 1.305 28 2.9 28h7.25c1.595 0 2.9-1.26 2.9-2.8v-7c0-1.54-1.305-2.8-2.9-2.8zm-.58 8.26l-1.015.98-2.03-1.96-2.03 1.96-1.015-.98 2.03-1.96-2.03-1.96 1.015-.98 2.03 1.96 2.03-1.96 1.015.98-2.03 1.96 2.03 1.96z" fill="#FD2016"/></g></symbol><symbol id="icon-glaz" viewBox="0 0 12.1 9.1"><path d="M11.786 4.288a.517.517 0 00-.012-.569C10 1.251 8.084 0 6.079 0 2.677 0 .314 3.586.216 3.738a.517.517 0 00.012.569C2 6.777 3.915 8.028 5.921 8.028c3.402 0 5.764-3.586 5.865-3.74zM5.893 7.06c-1.663 0-3.283-1.039-4.822-3.085.602-.809 2.518-3.08 4.98-3.08 1.663 0 3.283 1.04 4.822 3.086-.603.809-2.518 3.08-4.98 3.08z"/><path d="M5.975 2.113c-1.04 0-1.889.857-1.889 1.908 0 1.052.848 1.909 1.889 1.909 1.04 0 1.888-.857 1.888-1.909a1.901 1.901 0 00-1.888-1.908zm0 2.965a1.053 1.053 0 01-1.046-1.057c0-.582.47-1.056 1.046-1.056.576 0 1.045.474 1.045 1.056 0 .583-.469 1.057-1.045 1.057z"/></symbol><symbol id="icon-info"><g fill="none"><path fill-rule="evenodd" clip-rule="evenodd" d="M29.613 56.473a27.997 27.997 0 1126.882-27.977c.294 15.146-11.737 27.667-26.882 27.977z" fill="#fff"/><path fill-rule="evenodd" clip-rule="evenodd" d="M28.503 48.5c11.045 0 20-8.954 20-20s-8.955-20-20-20c-11.046 0-20 8.954-20 20s8.954 20 20 20zm.23-25.353a3.382 3.382 0 100-6.764 3.382 3.382 0 000 6.764zm2.457 2.833h-4.707v.001h-2.02v1.924h2.02v10.556h-2.02v2.02h8.078v-2.02h-1.35v-12.48z" fill="#9DCF00"/></g></symbol><symbol id="icon-user" viewBox="0 0 50.1 50.1"><path d="M21.645 11.713c-1.054-1.67 7.832-3.057 8.422 2.054a15.6 15.6 0 010 4.647s1.328-.152.442 2.372c0 0-.488 1.816-1.238 1.408 0 0 .122 2.296-1.058 2.685 0 0 .084 1.223.084 1.306l.986.147s-.03 1.02.167 1.13c.9.58 1.886 1.021 2.923 1.305 3.062.777 4.616 2.11 4.616 3.278l.823 4.189c-3.544 1.485-7.657 2.373-12.055 2.466H24.22c-4.389-.093-8.493-.977-12.03-2.456.161-1.159.371-2.47.588-3.315.466-1.816 3.087-3.165 5.498-4.202 1.248-.537 1.518-.86 2.774-1.409.07-.334.098-.676.084-1.017l1.068-.127s.14.255-.085-1.245c0 0-1.2-.311-1.256-2.7 0 0-.902.3-.956-1.147-.039-.98-.808-1.832.299-2.537l-.564-1.502s-.592-5.8 2.005-5.33z" fill-rule="evenodd"/></symbol></svg>